<?xml version="1.0" encoding="UTF-8" standalone="no"?>
<svg
   width="304"
   height="206.61722"
   viewBox="0 0 80.433335 54.667473"
   version="1.1"
   id="svg29008"
   inkscape:version="1.2.2 (b0a8486541, 2022-12-01)"
   sodipodi:docname="laurel.svg"
   xmlns:inkscape="http://www.inkscape.org/namespaces/inkscape"
   xmlns:sodipodi="http://sodipodi.sourceforge.net/DTD/sodipodi-0.dtd"
   xmlns="http://www.w3.org/2000/svg"
   xmlns:svg="http://www.w3.org/2000/svg"
   xmlns:rdf="http://www.w3.org/1999/02/22-rdf-syntax-ns#"
   xmlns:cc="http://creativecommons.org/ns#"
   xmlns:dc="http://purl.org/dc/elements/1.1/"
   xmlns:a="http://ns.adobe.com/AdobeSVGViewerExtensions/3.0/">
  <defs
     id="defs29002">
    <linearGradient
       id="SVGID_1_"
       gradientUnits="userSpaceOnUse"
       x1="6.7624998"
       y1="42.742699"
       x2="25.038799"
       y2="42.742699"
       gradientTransform="matrix(1,0,0,-1,0.1201,60.5449)">
      <stop
         offset="0"
         style="stop-color:#BBC36F"
         id="stop28451" />
      <stop
         offset="1"
         style="stop-color:#5F6B17"
         id="stop28453" />
      <a:midPointStop
         offset="0"
         style="stop-color:#BBC36F" />
      <a:midPointStop
         offset="0.5"
         style="stop-color:#BBC36F" />
      <a:midPointStop
         offset="1"
         style="stop-color:#5F6B17" />
    </linearGradient>
    <linearGradient
       id="SVGID_2_"
       gradientUnits="userSpaceOnUse"
       x1="20.699499"
       y1="58.890099"
       x2="20.699499"
       y2="40.205601"
       gradientTransform="matrix(1,0,0,-1,0.1201,60.5449)">
      <stop
         offset="0"
         style="stop-color:#939F22"
         id="stop28458" />
      <stop
         offset="1"
         style="stop-color:#626E19"
         id="stop28460" />
      <a:midPointStop
         offset="0"
         style="stop-color:#939F22" />
      <a:midPointStop
         offset="0.5"
         style="stop-color:#939F22" />
      <a:midPointStop
         offset="1"
         style="stop-color:#626E19" />
    </linearGradient>
    <linearGradient
       id="SVGID_3_"
       gradientUnits="userSpaceOnUse"
       x1="10.3772"
       y1="2.3921001"
       x2="1.4266"
       y2="15.04"
       gradientTransform="matrix(1,0,0,-1,0.1201,60.5449)">
      <stop
         offset="0"
         style="stop-color:#BBC36F"
         id="stop28465" />
      <stop
         offset="1"
         style="stop-color:#5F6B17"
         id="stop28467" />
      <a:midPointStop
         offset="0"
         style="stop-color:#BBC36F" />
      <a:midPointStop
         offset="0.5"
         style="stop-color:#BBC36F" />
      <a:midPointStop
         offset="1"
         style="stop-color:#5F6B17" />
    </linearGradient>
    <linearGradient
       id="SVGID_4_"
       gradientUnits="userSpaceOnUse"
       x1="11.1042"
       y1="45.0737"
       x2="11.1042"
       y2="1.6795"
       gradientTransform="matrix(1,0,0,-1,0.1201,60.5449)">
      <stop
         offset="0"
         style="stop-color:#939F22"
         id="stop28472" />
      <stop
         offset="1"
         style="stop-color:#626E19"
         id="stop28474" />
      <a:midPointStop
         offset="0"
         style="stop-color:#939F22" />
      <a:midPointStop
         offset="0.5"
         style="stop-color:#939F22" />
      <a:midPointStop
         offset="1"
         style="stop-color:#626E19" />
    </linearGradient>
    <linearGradient
       id="SVGID_5_"
       gradientUnits="userSpaceOnUse"
       x1="1.9626"
       y1="13.1587"
       x2="36.883301"
       y2="1.6717"
       gradientTransform="matrix(1,0,0,-1,0.1201,60.5449)">
      <stop
         offset="0"
         style="stop-color:#939F22"
         id="stop28479" />
      <stop
         offset="1"
         style="stop-color:#626E19"
         id="stop28481" />
      <a:midPointStop
         offset="0"
         style="stop-color:#939F22" />
      <a:midPointStop
         offset="0.5"
         style="stop-color:#939F22" />
      <a:midPointStop
         offset="1"
         style="stop-color:#626E19" />
    </linearGradient>
    <linearGradient
       id="SVGID_6_"
       gradientUnits="userSpaceOnUse"
       x1="37.174099"
       y1="18.500999"
       x2="37.174099"
       y2="1.2614"
       gradientTransform="matrix(1,0,0,-1,0.1201,60.5449)">
      <stop
         offset="0"
         style="stop-color:#BBC36F"
         id="stop28486" />
      <stop
         offset="1"
         style="stop-color:#5F6B17"
         id="stop28488" />
      <a:midPointStop
         offset="0"
         style="stop-color:#BBC36F" />
      <a:midPointStop
         offset="0.5"
         style="stop-color:#BBC36F" />
      <a:midPointStop
         offset="1"
         style="stop-color:#5F6B17" />
    </linearGradient>
    <linearGradient
       id="SVGID_7_"
       gradientUnits="userSpaceOnUse"
       x1="90.090599"
       y1="20.8564"
       x2="90.090599"
       y2="17.389799"
       gradientTransform="matrix(1,0,0,-1,0.1201,60.5449)">
      <stop
         offset="0"
         style="stop-color:#939F22"
         id="stop28508" />
      <stop
         offset="1"
         style="stop-color:#626E19"
         id="stop28510" />
      <a:midPointStop
         offset="0"
         style="stop-color:#939F22" />
      <a:midPointStop
         offset="0.5"
         style="stop-color:#939F22" />
      <a:midPointStop
         offset="1"
         style="stop-color:#626E19" />
    </linearGradient>
    <linearGradient
       id="linearGradient28934"
       gradientUnits="userSpaceOnUse"
       x1="90.090599"
       y1="20.8564"
       x2="90.090599"
       y2="17.389799"
       gradientTransform="matrix(1,0,0,-1,0.1201,60.5449)">
      <stop
         offset="0"
         style="stop-color:#939F22"
         id="stop28930" />
      <stop
         offset="1"
         style="stop-color:#626E19"
         id="stop28932" />
      <a:midPointStop
         offset="0"
         style="stop-color:#939F22" />
      <a:midPointStop
         offset="0.5"
         style="stop-color:#939F22" />
      <a:midPointStop
         offset="1"
         style="stop-color:#626E19" />
    </linearGradient>
    <linearGradient
       id="linearGradient28884"
       gradientUnits="userSpaceOnUse"
       x1="6.7624998"
       y1="42.742699"
       x2="25.038799"
       y2="42.742699"
       gradientTransform="matrix(1,0,0,-1,0.1201,60.5449)">
      <stop
         offset="0"
         style="stop-color:#BBC36F"
         id="stop28880" />
      <stop
         offset="1"
         style="stop-color:#5F6B17"
         id="stop28882" />
      <a:midPointStop
         offset="0"
         style="stop-color:#BBC36F" />
      <a:midPointStop
         offset="0.5"
         style="stop-color:#BBC36F" />
      <a:midPointStop
         offset="1"
         style="stop-color:#5F6B17" />
    </linearGradient>
    <linearGradient
       id="linearGradient28891"
       gradientUnits="userSpaceOnUse"
       x1="20.699499"
       y1="58.890099"
       x2="20.699499"
       y2="40.205601"
       gradientTransform="matrix(1,0,0,-1,0.1201,60.5449)">
      <stop
         offset="0"
         style="stop-color:#939F22"
         id="stop28887" />
      <stop
         offset="1"
         style="stop-color:#626E19"
         id="stop28889" />
      <a:midPointStop
         offset="0"
         style="stop-color:#939F22" />
      <a:midPointStop
         offset="0.5"
         style="stop-color:#939F22" />
      <a:midPointStop
         offset="1"
         style="stop-color:#626E19" />
    </linearGradient>
    <linearGradient
       id="linearGradient28898"
       gradientUnits="userSpaceOnUse"
       x1="10.3772"
       y1="2.3921001"
       x2="1.4266"
       y2="15.04"
       gradientTransform="matrix(1,0,0,-1,0.1201,60.5449)">
      <stop
         offset="0"
         style="stop-color:#BBC36F"
         id="stop28894" />
      <stop
         offset="1"
         style="stop-color:#5F6B17"
         id="stop28896" />
      <a:midPointStop
         offset="0"
         style="stop-color:#BBC36F" />
      <a:midPointStop
         offset="0.5"
         style="stop-color:#BBC36F" />
      <a:midPointStop
         offset="1"
         style="stop-color:#5F6B17" />
    </linearGradient>
    <linearGradient
       id="linearGradient28905"
       gradientUnits="userSpaceOnUse"
       x1="11.1042"
       y1="45.0737"
       x2="11.1042"
       y2="1.6795"
       gradientTransform="matrix(1,0,0,-1,0.1201,60.5449)">
      <stop
         offset="0"
         style="stop-color:#939F22"
         id="stop28901" />
      <stop
         offset="1"
         style="stop-color:#626E19"
         id="stop28903" />
      <a:midPointStop
         offset="0"
         style="stop-color:#939F22" />
      <a:midPointStop
         offset="0.5"
         style="stop-color:#939F22" />
      <a:midPointStop
         offset="1"
         style="stop-color:#626E19" />
    </linearGradient>
    <linearGradient
       id="linearGradient28912"
       gradientUnits="userSpaceOnUse"
       x1="1.9626"
       y1="13.1587"
       x2="36.883301"
       y2="1.6717"
       gradientTransform="matrix(1,0,0,-1,0.1201,60.5449)">
      <stop
         offset="0"
         style="stop-color:#939F22"
         id="stop28908" />
      <stop
         offset="1"
         style="stop-color:#626E19"
         id="stop28910" />
      <a:midPointStop
         offset="0"
         style="stop-color:#939F22" />
      <a:midPointStop
         offset="0.5"
         style="stop-color:#939F22" />
      <a:midPointStop
         offset="1"
         style="stop-color:#626E19" />
    </linearGradient>
    <linearGradient
       id="linearGradient28919"
       gradientUnits="userSpaceOnUse"
       x1="37.174099"
       y1="18.500999"
       x2="37.174099"
       y2="1.2614"
       gradientTransform="matrix(1,0,0,-1,0.1201,60.5449)">
      <stop
         offset="0"
         style="stop-color:#BBC36F"
         id="stop28915" />
      <stop
         offset="1"
         style="stop-color:#5F6B17"
         id="stop28917" />
      <a:midPointStop
         offset="0"
         style="stop-color:#BBC36F" />
      <a:midPointStop
         offset="0.5"
         style="stop-color:#BBC36F" />
      <a:midPointStop
         offset="1"
         style="stop-color:#5F6B17" />
    </linearGradient>
  </defs>
  <sodipodi:namedview
     id="base"
     pagecolor="#292929"
     bordercolor="#666666"
     borderopacity="1.0"
     inkscape:pageopacity="0"
     inkscape:pageshadow="2"
     inkscape:zoom="4.5296053"
     inkscape:cx="115.02106"
     inkscape:cy="103.98257"
     inkscape:document-units="mm"
     inkscape:current-layer="layer1"
     inkscape:document-rotation="0"
     showgrid="false"
     lock-margins="true"
     units="px"
     fit-margin-top="2"
     fit-margin-left="2"
     fit-margin-right="2"
     fit-margin-bottom="2"
     inkscape:window-width="2555"
     inkscape:window-height="1401"
     inkscape:window-x="0"
     inkscape:window-y="0"
     inkscape:window-maximized="0"
     inkscape:showpageshadow="2"
     inkscape:pagecheckerboard="0"
     inkscape:deskcolor="#d1d1d1" />
  <metadata
     id="metadata29005">
    <rdf:RDF>
      <cc:Work
         rdf:about="">
        <dc:format>image/svg+xml</dc:format>
        <dc:type
           rdf:resource="http://purl.org/dc/dcmitype/StillImage" />
      </cc:Work>
    </rdf:RDF>
  </metadata>
  <g
     inkscape:label="Layer 1"
     inkscape:groupmode="layer"
     id="layer1"
     transform="translate(-42.752245,-36.613634)">
    <polygon
       fill="url(#SVGID_1_)"
       points="25.159,18.909 16.479,21.973 6.883,16.694 15.565,13.631 "
       id="polygon28456"
       style="fill:url(#SVGID_1_)"
       transform="matrix(0.86451016,0,0,0.86451016,43.043429,37.142801)" />
    <polygon
       fill="url(#SVGID_2_)"
       points="25.159,18.909 16.479,21.973 16.479,3.062 25.159,0 "
       id="polygon28463"
       style="fill:url(#SVGID_2_)"
       transform="matrix(0.86451016,0,0,0.86451016,43.043429,37.142801)" />
    <polygon
       fill="url(#SVGID_3_)"
       points="15.565,57.042 6.883,60.108 0,51.591 5.059,43.896 "
       id="polygon28470"
       style="fill:url(#SVGID_3_)"
       transform="matrix(0.86451016,0,0,0.86451016,43.043429,37.142801)" />
    <polygon
       fill="url(#SVGID_4_)"
       points="15.565,57.042 6.883,60.108 6.883,16.694 15.565,13.631 "
       id="polygon28477"
       style="fill:url(#SVGID_4_)"
       transform="matrix(0.86451016,0,0,0.86451016,43.043429,37.142801)" />
    <polygon
       fill="url(#SVGID_5_)"
       points="32.957,62.011 38.014,54.315 5.059,43.896 0,51.591 "
       id="polygon28484"
       style="fill:url(#SVGID_5_)"
       transform="matrix(0.86451016,0,0,0.86451016,43.043429,37.142801)" />
    <polygon
       fill="url(#SVGID_6_)"
       points="41.639,58.946 32.957,62.011 32.948,48.216 41.639,50.701 "
       id="polygon28491"
       style="fill:url(#SVGID_6_)"
       transform="matrix(0.86451016,0,0,0.86451016,43.043429,37.142801)" />
    <polygon
       fill="#46500b"
       points="6.883,60.108 6.883,53.772 6.383,53.615 "
       id="polygon28495"
       transform="matrix(0.86451016,0,0,0.86451016,43.043429,37.142801)" />
    <polygon
       fill="#46500b"
       points="15.565,56.862 15.565,56.511 0,51.591 "
       id="polygon28497"
       transform="matrix(0.86451016,0,0,0.86451016,43.043429,37.142801)" />
    <polygon
       fill="#49530b"
       points="15.565,47.218 15.565,46.869 6.883,44.474 "
       id="polygon28499"
       transform="matrix(0.86451016,0,0,0.86451016,43.043429,37.142801)" />
    <polygon
       fill="#49530b"
       points="15.565,21.469 15.565,13.631 15.918,21.665 "
       id="polygon28501"
       transform="matrix(0.86451016,0,0,0.86451016,43.043429,37.142801)" />
    <polygon
       fill="#49530b"
       points="32.948,62.011 32.948,52.716 32.526,52.582 "
       id="polygon28503"
       transform="matrix(0.86451016,0,0,0.86451016,43.043429,37.142801)" />
    <polygon
       fill="url(#SVGID_7_)"
       points="88.608,40.535 91.815,39.378 91.815,42.496 89.091,43.457 "
       id="polygon28513"
       style="fill:url(#SVGID_7_)"
       transform="matrix(0.86451016,0,0,0.86451016,43.043429,37.142801)" />
    <g
       id="g25468"
       style="stroke:#b0cc34;stroke-opacity:0.54885644">
      <path
         d="M 60.650907,74.904605 V 59.792967 h 3.407035 v 12.238006 h 5.980681 v 2.874496 z"
         id="path28515"
         style="stroke-width:0.26458333;fill:#000000;fill-opacity:1;stroke:#b0cc34;stroke-opacity:0.54885644;stroke-dasharray:none;paint-order:markers stroke fill" />
      <path
         d="m 74.352529,75.182113 c -1.052109,0 -1.88809,-0.338024 -2.503621,-1.009748 -0.618125,-0.669996 -0.92762,-1.494738 -0.92762,-2.467312 0,-1.205992 0.51179,-2.145715 1.531048,-2.827813 1.019257,-0.68037 2.665284,-1.135102 4.937217,-1.367655 -0.03199,-0.510061 -0.182411,-0.917245 -0.452139,-1.21723 -0.270591,-0.302579 -0.72273,-0.451275 -1.353823,-0.451275 -0.480667,0 -0.965657,0.09164 -1.460157,0.278373 -0.493636,0.185005 -1.019258,0.4409 -1.575138,0.765091 l -1.229333,-2.248591 c 0.727053,-0.448681 1.502518,-0.81091 2.329855,-1.090147 0.825607,-0.277508 1.686659,-0.416694 2.583156,-0.416694 1.466209,0 2.596989,0.426203 3.385422,1.276017 0.78584,0.848949 1.180921,2.155224 1.180921,3.916231 v 6.58238 h -2.783723 l -0.231689,-1.181785 h -0.09164 c -0.479803,0.433119 -0.991593,0.783246 -1.541421,1.055567 -0.550693,0.269727 -1.149799,0.404591 -1.797317,0.404591 z m 1.157579,-2.641079 c 0.386436,0 0.723595,-0.08991 1.008019,-0.267134 0.285288,-0.177224 0.575764,-0.4141 0.870562,-0.70544 v -2.017767 c -1.206857,0.156477 -2.03938,0.399404 -2.503622,0.73224 -0.462513,0.332837 -0.696795,0.721002 -0.696795,1.170547 0,0.37174 0.121031,0.645789 0.359636,0.823014 0.240334,0.175495 0.561067,0.26454 0.9622,0.26454 z"
         id="path28517"
         style="stroke-width:0.26458333;fill:#000000;fill-opacity:1;stroke:#b0cc34;stroke-opacity:0.54885644;stroke-dasharray:none;paint-order:markers stroke fill" />
      <path
         d="m 86.193725,75.182113 c -1.250947,0 -2.157818,-0.414101 -2.720614,-1.241437 -0.56539,-0.827336 -0.846355,-1.95898 -0.846355,-3.395796 v -7.13826 h 3.407034 v 6.699089 c 0,0.818691 0.11498,1.386674 0.346669,1.703949 0.231689,0.317276 0.594783,0.476346 1.089283,0.476346 0.432255,0 0.796213,-0.101148 1.090147,-0.302579 0.293069,-0.198837 0.610344,-0.524758 0.951826,-0.972574 V 63.40662 h 3.40617 v 11.497985 h -2.782859 l -0.25503,-1.600209 h -0.06916 c -0.480668,0.570577 -1.003696,1.027039 -1.575137,1.367656 -0.571442,0.340617 -1.25354,0.510061 -2.041974,0.510061 z"
         id="path28519"
         style="stroke-width:0.26458333;fill:#000000;fill-opacity:1;stroke:#b0cc34;stroke-opacity:0.54885644;stroke-dasharray:none;paint-order:markers stroke fill" />
      <path
         d="M 94.978877,74.904605 V 63.408349 h 2.782858 l 0.232553,2.015173 h 0.09164 c 0.416694,-0.772008 0.918975,-1.347771 1.506842,-1.725562 0.587,-0.378656 1.17314,-0.567984 1.761,-0.567984 0.3242,0 0.59479,0.01902 0.81178,0.05792 0.21526,0.0389 0.40113,0.09596 0.55588,0.173766 l -0.55588,2.942793 c -0.2023,-0.06052 -0.40027,-0.108064 -0.59478,-0.138322 -0.19279,-0.03026 -0.4141,-0.04668 -0.65962,-0.04668 -0.43399,0 -0.8844,0.158205 -1.356419,0.47548 -0.471158,0.316411 -0.861052,0.861052 -1.170547,1.63306 v 6.677476 h -3.405305 z"
         id="path28521"
         style="stroke-width:0.26458333;fill:#000000;fill-opacity:1;stroke:#b0cc34;stroke-opacity:0.54885644;stroke-dasharray:none;paint-order:markers stroke fill" />
      <path
         d="m 108.4246,75.182113 c -1.09879,0 -2.08606,-0.23947 -2.96786,-0.719273 -0.88266,-0.479803 -1.576,-1.167089 -2.08693,-2.063586 -0.51006,-0.894768 -0.76509,-1.977134 -0.76509,-3.245371 0,-1.250946 0.25849,-2.324668 0.77547,-3.222029 0.5187,-0.895633 1.19389,-1.587241 2.029,-2.073096 0.83598,-0.486719 1.70741,-0.731375 2.6186,-0.731375 1.09793,0 2.00307,0.243792 2.72148,0.731375 0.71927,0.48672 1.26046,1.142883 1.62269,1.969355 0.36309,0.827336 0.5455,1.765329 0.5455,2.817438 0,0.292205 -0.0164,0.58268 -0.0476,0.867968 -0.0303,0.287018 -0.0605,0.499687 -0.0908,0.637144 h -6.88496 c 0.15561,0.835117 0.50228,1.449784 1.0426,1.843136 0.54118,0.394217 1.19043,0.591325 1.94688,0.591325 0.81869,0 1.64516,-0.25503 2.48028,-0.765091 l 1.1351,2.063585 c -0.5896,0.401998 -1.24317,0.719273 -1.97022,0.950961 -0.721,0.233418 -1.42558,0.347534 -2.10422,0.347534 z m -2.55117,-7.277447 h 4.15138 c 0,-0.632821 -0.15129,-1.154986 -0.45214,-1.566492 -0.30085,-0.409778 -0.79189,-0.613803 -1.46966,-0.613803 -0.52563,0 -0.99678,0.181548 -1.41607,0.544642 -0.41842,0.363959 -0.68815,0.910329 -0.81351,1.635653 z"
         id="path28523"
         style="stroke-width:0.26458333;fill:#000000;fill-opacity:1;stroke:#b0cc34;stroke-opacity:0.54885644;stroke-dasharray:none;paint-order:markers stroke fill" />
      <path
         d="m 117.48726,75.182113 c -1.17487,0 -1.99096,-0.350992 -2.44656,-1.055567 -0.45387,-0.702847 -0.68383,-1.633925 -0.68383,-2.792368 V 58.656136 h 3.40704 v 12.816363 c 0,0.356179 0.0648,0.602564 0.19797,0.742615 0.13227,0.138321 0.26886,0.208347 0.40718,0.208347 0.0778,0 0.14178,-0.0035 0.19798,-0.01124 0.0545,-0.0086 0.12622,-0.01815 0.21958,-0.03544 l 0.41756,2.526963 c -0.1876,0.07694 -0.42102,0.142644 -0.7063,0.197109 -0.28962,0.05446 -0.62591,0.08126 -1.01062,0.08126 z"
         id="path28525"
         style="stroke-width:0.26458333;fill:#000000;fill-opacity:1;stroke:#b0cc34;stroke-opacity:0.54885644;stroke-dasharray:none;paint-order:markers stroke fill" />
    </g>
  </g>
</svg>
