<?xml version="1.0" encoding="UTF-8" standalone="no"?>
<svg
   xmlns:a="http://ns.adobe.com/AdobeSVGViewerExtensions/3.0/"
   xmlns:dc="http://purl.org/dc/elements/1.1/"
   xmlns:cc="http://creativecommons.org/ns#"
   xmlns:rdf="http://www.w3.org/1999/02/22-rdf-syntax-ns#"
   xmlns:svg="http://www.w3.org/2000/svg"
   xmlns="http://www.w3.org/2000/svg"
   xmlns:sodipodi="http://sodipodi.sourceforge.net/DTD/sodipodi-0.dtd"
   xmlns:inkscape="http://www.inkscape.org/namespaces/inkscape"
   width="304"
   height="206.61722"
   viewBox="0 0 80.433335 54.667473"
   version="1.1"
   id="svg29008"
   inkscape:version="1.0.2 (e86c870879, 2021-01-15)"
   sodipodi:docname="laurel.svg">
  <defs
     id="defs29002">
    <linearGradient
       id="SVGID_1_"
       gradientUnits="userSpaceOnUse"
       x1="6.7624998"
       y1="42.742699"
       x2="25.038799"
       y2="42.742699"
       gradientTransform="matrix(1,0,0,-1,0.1201,60.5449)">
      <stop
         offset="0"
         style="stop-color:#BBC36F"
         id="stop28451" />
      <stop
         offset="1"
         style="stop-color:#5F6B17"
         id="stop28453" />
      <a:midPointStop
         offset="0"
         style="stop-color:#BBC36F" />
      <a:midPointStop
         offset="0.5"
         style="stop-color:#BBC36F" />
      <a:midPointStop
         offset="1"
         style="stop-color:#5F6B17" />
    </linearGradient>
    <linearGradient
       id="SVGID_2_"
       gradientUnits="userSpaceOnUse"
       x1="20.699499"
       y1="58.890099"
       x2="20.699499"
       y2="40.205601"
       gradientTransform="matrix(1,0,0,-1,0.1201,60.5449)">
      <stop
         offset="0"
         style="stop-color:#939F22"
         id="stop28458" />
      <stop
         offset="1"
         style="stop-color:#626E19"
         id="stop28460" />
      <a:midPointStop
         offset="0"
         style="stop-color:#939F22" />
      <a:midPointStop
         offset="0.5"
         style="stop-color:#939F22" />
      <a:midPointStop
         offset="1"
         style="stop-color:#626E19" />
    </linearGradient>
    <linearGradient
       id="SVGID_3_"
       gradientUnits="userSpaceOnUse"
       x1="10.3772"
       y1="2.3921001"
       x2="1.4266"
       y2="15.04"
       gradientTransform="matrix(1,0,0,-1,0.1201,60.5449)">
      <stop
         offset="0"
         style="stop-color:#BBC36F"
         id="stop28465" />
      <stop
         offset="1"
         style="stop-color:#5F6B17"
         id="stop28467" />
      <a:midPointStop
         offset="0"
         style="stop-color:#BBC36F" />
      <a:midPointStop
         offset="0.5"
         style="stop-color:#BBC36F" />
      <a:midPointStop
         offset="1"
         style="stop-color:#5F6B17" />
    </linearGradient>
    <linearGradient
       id="SVGID_4_"
       gradientUnits="userSpaceOnUse"
       x1="11.1042"
       y1="45.0737"
       x2="11.1042"
       y2="1.6795"
       gradientTransform="matrix(1,0,0,-1,0.1201,60.5449)">
      <stop
         offset="0"
         style="stop-color:#939F22"
         id="stop28472" />
      <stop
         offset="1"
         style="stop-color:#626E19"
         id="stop28474" />
      <a:midPointStop
         offset="0"
         style="stop-color:#939F22" />
      <a:midPointStop
         offset="0.5"
         style="stop-color:#939F22" />
      <a:midPointStop
         offset="1"
         style="stop-color:#626E19" />
    </linearGradient>
    <linearGradient
       id="SVGID_5_"
       gradientUnits="userSpaceOnUse"
       x1="1.9626"
       y1="13.1587"
       x2="36.883301"
       y2="1.6717"
       gradientTransform="matrix(1,0,0,-1,0.1201,60.5449)">
      <stop
         offset="0"
         style="stop-color:#939F22"
         id="stop28479" />
      <stop
         offset="1"
         style="stop-color:#626E19"
         id="stop28481" />
      <a:midPointStop
         offset="0"
         style="stop-color:#939F22" />
      <a:midPointStop
         offset="0.5"
         style="stop-color:#939F22" />
      <a:midPointStop
         offset="1"
         style="stop-color:#626E19" />
    </linearGradient>
    <linearGradient
       id="SVGID_6_"
       gradientUnits="userSpaceOnUse"
       x1="37.174099"
       y1="18.500999"
       x2="37.174099"
       y2="1.2614"
       gradientTransform="matrix(1,0,0,-1,0.1201,60.5449)">
      <stop
         offset="0"
         style="stop-color:#BBC36F"
         id="stop28486" />
      <stop
         offset="1"
         style="stop-color:#5F6B17"
         id="stop28488" />
      <a:midPointStop
         offset="0"
         style="stop-color:#BBC36F" />
      <a:midPointStop
         offset="0.5"
         style="stop-color:#BBC36F" />
      <a:midPointStop
         offset="1"
         style="stop-color:#5F6B17" />
    </linearGradient>
    <linearGradient
       id="SVGID_7_"
       gradientUnits="userSpaceOnUse"
       x1="90.090599"
       y1="20.8564"
       x2="90.090599"
       y2="17.389799"
       gradientTransform="matrix(1,0,0,-1,0.1201,60.5449)">
      <stop
         offset="0"
         style="stop-color:#939F22"
         id="stop28508" />
      <stop
         offset="1"
         style="stop-color:#626E19"
         id="stop28510" />
      <a:midPointStop
         offset="0"
         style="stop-color:#939F22" />
      <a:midPointStop
         offset="0.5"
         style="stop-color:#939F22" />
      <a:midPointStop
         offset="1"
         style="stop-color:#626E19" />
    </linearGradient>
  </defs>
  <sodipodi:namedview
     id="base"
     pagecolor="#ffffff"
     bordercolor="#666666"
     borderopacity="1.0"
     inkscape:pageopacity="0.0"
     inkscape:pageshadow="2"
     inkscape:zoom="3.959798"
     inkscape:cx="174.84633"
     inkscape:cy="119.291"
     inkscape:document-units="mm"
     inkscape:current-layer="layer1"
     inkscape:document-rotation="0"
     showgrid="false"
     lock-margins="true"
     units="px"
     fit-margin-top="2"
     fit-margin-left="2"
     fit-margin-right="2"
     fit-margin-bottom="2"
     inkscape:window-width="2556"
     inkscape:window-height="1401"
     inkscape:window-x="0"
     inkscape:window-y="18"
     inkscape:window-maximized="0" />
  <metadata
     id="metadata29005">
    <rdf:RDF>
      <cc:Work
         rdf:about="">
        <dc:format>image/svg+xml</dc:format>
        <dc:type
           rdf:resource="http://purl.org/dc/dcmitype/StillImage" />
        <dc:title></dc:title>
      </cc:Work>
    </rdf:RDF>
  </metadata>
  <g
     inkscape:label="Layer 1"
     inkscape:groupmode="layer"
     id="layer1"
     transform="translate(-42.752245,-36.613634)">
    <g
       id="g28531"
       transform="matrix(0.86451016,0,0,0.86451016,43.281412,37.142801)">
      <g
         id="g28506">
        <g
           id="g28493">
          <linearGradient
             id="linearGradient28884"
             gradientUnits="userSpaceOnUse"
             x1="6.7624998"
             y1="42.742699"
             x2="25.038799"
             y2="42.742699"
             gradientTransform="matrix(1,0,0,-1,0.1201,60.5449)">
            <stop
               offset="0"
               style="stop-color:#BBC36F"
               id="stop28880" />
            <stop
               offset="1"
               style="stop-color:#5F6B17"
               id="stop28882" />
            <a:midPointStop
               offset="0"
               style="stop-color:#BBC36F" />
            <a:midPointStop
               offset="0.5"
               style="stop-color:#BBC36F" />
            <a:midPointStop
               offset="1"
               style="stop-color:#5F6B17" />
          </linearGradient>
          <polygon
             fill="url(#SVGID_1_)"
             points="16.479,21.973 6.883,16.694 15.565,13.631 25.159,18.909 "
             id="polygon28456"
             style="fill:url(#SVGID_1_)" />
          <linearGradient
             id="linearGradient28891"
             gradientUnits="userSpaceOnUse"
             x1="20.699499"
             y1="58.890099"
             x2="20.699499"
             y2="40.205601"
             gradientTransform="matrix(1,0,0,-1,0.1201,60.5449)">
            <stop
               offset="0"
               style="stop-color:#939F22"
               id="stop28887" />
            <stop
               offset="1"
               style="stop-color:#626E19"
               id="stop28889" />
            <a:midPointStop
               offset="0"
               style="stop-color:#939F22" />
            <a:midPointStop
               offset="0.5"
               style="stop-color:#939F22" />
            <a:midPointStop
               offset="1"
               style="stop-color:#626E19" />
          </linearGradient>
          <polygon
             fill="url(#SVGID_2_)"
             points="16.479,21.973 16.479,3.062 25.159,0 25.159,18.909 "
             id="polygon28463"
             style="fill:url(#SVGID_2_)" />
          <linearGradient
             id="linearGradient28898"
             gradientUnits="userSpaceOnUse"
             x1="10.3772"
             y1="2.3921001"
             x2="1.4266"
             y2="15.04"
             gradientTransform="matrix(1,0,0,-1,0.1201,60.5449)">
            <stop
               offset="0"
               style="stop-color:#BBC36F"
               id="stop28894" />
            <stop
               offset="1"
               style="stop-color:#5F6B17"
               id="stop28896" />
            <a:midPointStop
               offset="0"
               style="stop-color:#BBC36F" />
            <a:midPointStop
               offset="0.5"
               style="stop-color:#BBC36F" />
            <a:midPointStop
               offset="1"
               style="stop-color:#5F6B17" />
          </linearGradient>
          <polygon
             fill="url(#SVGID_3_)"
             points="6.883,60.108 0,51.591 5.059,43.896 15.565,57.042 "
             id="polygon28470"
             style="fill:url(#SVGID_3_)" />
          <linearGradient
             id="linearGradient28905"
             gradientUnits="userSpaceOnUse"
             x1="11.1042"
             y1="45.0737"
             x2="11.1042"
             y2="1.6795"
             gradientTransform="matrix(1,0,0,-1,0.1201,60.5449)">
            <stop
               offset="0"
               style="stop-color:#939F22"
               id="stop28901" />
            <stop
               offset="1"
               style="stop-color:#626E19"
               id="stop28903" />
            <a:midPointStop
               offset="0"
               style="stop-color:#939F22" />
            <a:midPointStop
               offset="0.5"
               style="stop-color:#939F22" />
            <a:midPointStop
               offset="1"
               style="stop-color:#626E19" />
          </linearGradient>
          <polygon
             fill="url(#SVGID_4_)"
             points="6.883,60.108 6.883,16.694 15.565,13.631 15.565,57.042 "
             id="polygon28477"
             style="fill:url(#SVGID_4_)" />
          <linearGradient
             id="linearGradient28912"
             gradientUnits="userSpaceOnUse"
             x1="1.9626"
             y1="13.1587"
             x2="36.883301"
             y2="1.6717"
             gradientTransform="matrix(1,0,0,-1,0.1201,60.5449)">
            <stop
               offset="0"
               style="stop-color:#939F22"
               id="stop28908" />
            <stop
               offset="1"
               style="stop-color:#626E19"
               id="stop28910" />
            <a:midPointStop
               offset="0"
               style="stop-color:#939F22" />
            <a:midPointStop
               offset="0.5"
               style="stop-color:#939F22" />
            <a:midPointStop
               offset="1"
               style="stop-color:#626E19" />
          </linearGradient>
          <polygon
             fill="url(#SVGID_5_)"
             points="38.014,54.315 5.059,43.896 0,51.591 32.957,62.011 "
             id="polygon28484"
             style="fill:url(#SVGID_5_)" />
          <linearGradient
             id="linearGradient28919"
             gradientUnits="userSpaceOnUse"
             x1="37.174099"
             y1="18.500999"
             x2="37.174099"
             y2="1.2614"
             gradientTransform="matrix(1,0,0,-1,0.1201,60.5449)">
            <stop
               offset="0"
               style="stop-color:#BBC36F"
               id="stop28915" />
            <stop
               offset="1"
               style="stop-color:#5F6B17"
               id="stop28917" />
            <a:midPointStop
               offset="0"
               style="stop-color:#BBC36F" />
            <a:midPointStop
               offset="0.5"
               style="stop-color:#BBC36F" />
            <a:midPointStop
               offset="1"
               style="stop-color:#5F6B17" />
          </linearGradient>
          <polygon
             fill="url(#SVGID_6_)"
             points="32.957,62.011 32.948,48.216 41.639,50.701 41.639,58.946 "
             id="polygon28491"
             style="fill:url(#SVGID_6_)" />
        </g>
        <g
           id="Schatten_22_">
          <polygon
             fill="#46500b"
             points="6.383,53.615 6.883,60.108 6.883,53.772 "
             id="polygon28495" />
          <polygon
             fill="#46500b"
             points="0,51.591 15.565,56.862 15.565,56.511 "
             id="polygon28497" />
          <polygon
             fill="#49530b"
             points="6.883,44.474 15.565,47.218 15.565,46.869 "
             id="polygon28499" />
          <polygon
             fill="#49530b"
             points="15.918,21.665 15.565,21.469 15.565,13.631 "
             id="polygon28501" />
          <polygon
             fill="#49530b"
             points="32.526,52.582 32.948,62.011 32.948,52.716 "
             id="polygon28503" />
        </g>
      </g>
      <g
         id="g28529">
        <linearGradient
           id="linearGradient28934"
           gradientUnits="userSpaceOnUse"
           x1="90.090599"
           y1="20.8564"
           x2="90.090599"
           y2="17.389799"
           gradientTransform="matrix(1,0,0,-1,0.1201,60.5449)">
          <stop
             offset="0"
             style="stop-color:#939F22"
             id="stop28930" />
          <stop
             offset="1"
             style="stop-color:#626E19"
             id="stop28932" />
          <a:midPointStop
             offset="0"
             style="stop-color:#939F22" />
          <a:midPointStop
             offset="0.5"
             style="stop-color:#939F22" />
          <a:midPointStop
             offset="1"
             style="stop-color:#626E19" />
        </linearGradient>
        <polygon
           fill="url(#SVGID_7_)"
           points="89.091,43.457 88.608,40.535 91.815,39.378 91.815,42.496 "
           id="polygon28513"
           style="fill:url(#SVGID_7_)" />
        <g
           id="g28527">
          <path
             d="M 20.367,43.68 V 26.2 h 3.941 v 14.156 h 6.918 v 3.325 z"
             id="path28515" />
          <path
             d="m 36.216,44.001 c -1.217,0 -2.184,-0.391 -2.896,-1.168 -0.715,-0.775 -1.073,-1.729 -1.073,-2.854 0,-1.395 0.592,-2.482 1.771,-3.271 1.179,-0.787 3.083,-1.313 5.711,-1.582 -0.037,-0.59 -0.211,-1.061 -0.523,-1.408 -0.313,-0.35 -0.836,-0.522 -1.566,-0.522 -0.556,0 -1.117,0.106 -1.689,0.322 -0.571,0.214 -1.179,0.51 -1.822,0.885 l -1.422,-2.601 c 0.841,-0.519 1.738,-0.938 2.695,-1.261 0.955,-0.321 1.951,-0.482 2.988,-0.482 1.696,0 3.004,0.493 3.916,1.476 0.909,0.982 1.366,2.493 1.366,4.53 v 7.614 h -3.22 l -0.268,-1.367 h -0.106 c -0.555,0.501 -1.147,0.906 -1.783,1.221 -0.637,0.312 -1.33,0.468 -2.079,0.468 z m 1.339,-3.055 c 0.447,0 0.837,-0.104 1.166,-0.309 0.33,-0.205 0.666,-0.479 1.007,-0.816 v -2.334 c -1.396,0.181 -2.359,0.462 -2.896,0.847 -0.535,0.385 -0.806,0.834 -0.806,1.354 0,0.43 0.14,0.747 0.416,0.952 0.278,0.203 0.649,0.306 1.113,0.306 z"
             id="path28517" />
          <path
             d="m 49.913,44.001 c -1.447,0 -2.496,-0.479 -3.147,-1.436 -0.654,-0.957 -0.979,-2.266 -0.979,-3.928 V 30.38 h 3.941 v 7.749 c 0,0.947 0.133,1.604 0.401,1.971 0.268,0.367 0.688,0.551 1.26,0.551 0.5,0 0.921,-0.117 1.261,-0.35 0.339,-0.23 0.706,-0.607 1.101,-1.125 V 30.38 h 3.94 v 13.3 h -3.219 l -0.295,-1.851 h -0.08 c -0.556,0.66 -1.161,1.188 -1.822,1.582 -0.661,0.394 -1.45,0.59 -2.362,0.59 z"
             id="path28519" />
          <path
             d="M 60.075,43.68 V 30.382 h 3.219 l 0.269,2.331 h 0.106 c 0.482,-0.893 1.063,-1.559 1.743,-1.996 0.679,-0.438 1.357,-0.657 2.037,-0.657 0.375,0 0.688,0.022 0.939,0.067 0.249,0.045 0.464,0.111 0.643,0.201 l -0.643,3.404 c -0.234,-0.07 -0.463,-0.125 -0.688,-0.16 -0.223,-0.035 -0.479,-0.054 -0.763,-0.054 -0.502,0 -1.023,0.183 -1.569,0.55 -0.545,0.366 -0.996,0.996 -1.354,1.889 v 7.724 h -3.939 z"
             id="path28521" />
          <path
             d="m 75.628,44.001 c -1.271,0 -2.413,-0.277 -3.433,-0.832 -1.021,-0.555 -1.823,-1.35 -2.414,-2.387 -0.59,-1.035 -0.885,-2.287 -0.885,-3.754 0,-1.447 0.299,-2.689 0.897,-3.727 0.6,-1.036 1.381,-1.836 2.347,-2.398 0.967,-0.563 1.975,-0.846 3.029,-0.846 1.27,0 2.317,0.282 3.148,0.846 0.832,0.563 1.458,1.322 1.877,2.278 0.42,0.957 0.631,2.042 0.631,3.259 0,0.338 -0.019,0.674 -0.055,1.004 -0.035,0.332 -0.07,0.578 -0.105,0.737 h -7.964 c 0.18,0.966 0.581,1.677 1.206,2.132 0.626,0.456 1.377,0.684 2.252,0.684 0.947,0 1.903,-0.295 2.869,-0.885 l 1.313,2.387 c -0.682,0.465 -1.438,0.832 -2.279,1.1 -0.834,0.27 -1.649,0.402 -2.434,0.402 z m -2.951,-8.418 h 4.802 c 0,-0.732 -0.175,-1.336 -0.523,-1.812 -0.348,-0.474 -0.916,-0.71 -1.7,-0.71 -0.608,0 -1.153,0.21 -1.638,0.63 -0.484,0.421 -0.796,1.053 -0.941,1.892 z"
             id="path28523" />
          <path
             d="m 86.111,44.001 c -1.359,0 -2.303,-0.406 -2.83,-1.221 C 82.756,41.967 82.49,40.89 82.49,39.55 V 24.885 h 3.941 V 39.71 c 0,0.412 0.075,0.697 0.229,0.859 0.153,0.16 0.311,0.241 0.471,0.241 0.09,0 0.164,-0.004 0.229,-0.013 0.063,-0.01 0.146,-0.021 0.254,-0.041 l 0.483,2.923 c -0.217,0.089 -0.487,0.165 -0.817,0.228 -0.335,0.063 -0.724,0.094 -1.169,0.094 z"
             id="path28525" />
        </g>
      </g>
    </g>
  </g>
</svg>
